<?xml version="1.0" encoding="utf-8"?>
<!-- Generator: Adobe Illustrator 22.1.0, SVG Export Plug-In . SVG Version: 6.00 Build 0)  -->
<svg version="1.1" xmlns="http://www.w3.org/2000/svg" xmlns:xlink="http://www.w3.org/1999/xlink" x="0px" y="0px"
	 viewBox="0 0 506.2 98" style="enable-background:new 0 0 506.2 98;" xml:space="preserve">
<style type="text/css">
	.st0{display:none;}
	.st1{fill:white;}
	.st2{fill:url(#SVGID_1_);}
	.st3{fill:url(#SVGID_2_);}
	.st4{fill:url(#SVGID_3_);}
	.st5{fill:#FFFFFF;}
	.st6{fill:url(#SVGID_4_);}
	
		.st7{display:inline;fill:#6A3A88;stroke:#FFFFFF;stroke-width:0.25;stroke-linecap:round;stroke-linejoin:round;stroke-miterlimit:10;}
</style>
<g id="Capa_1" class="st0">
</g>
<g id="Capa_2">
	<g>
		<path class="st1" d="M142.1,43c0,7.3-6,11.6-12.3,11.6h-5.3V64h-7.8V31.4h13.1C136.1,31.4,142.1,35.8,142.1,43z M134.3,43
			c0-2.7-1.9-4.3-4.5-4.3h-5.3v8.5h5.3C132.3,47.3,134.3,45.7,134.3,43z M158.9,41.3l-1,6.8c-0.5-0.3-1.5-0.5-2.2-0.5
			c-2.3,0-4.1,1.9-4.1,7.6V64h-7.8V40.8h7.3l0.3,2.1c1.4-1.6,3-2.5,4.7-2.5C157.4,40.3,158.4,40.7,158.9,41.3z M160.2,52.4
			c0-6.7,5-12.1,12.6-12.1c7.6,0,12.5,5.4,12.5,12.1c0,6.7-5,12.1-12.5,12.1C165.2,64.5,160.2,59,160.2,52.4z M177.5,52.4
			c0-2.5-1.7-4.7-4.7-4.7c-3,0-4.8,2.2-4.8,4.7c0,2.5,1.8,4.7,4.8,4.7C175.8,57.1,177.5,54.9,177.5,52.4z M198.4,40.3
			c3.5,0,6.1,1.7,7,3.5V29.6h7.8V64h-7.3l-0.5-3.1c-1,1.9-3.5,3.5-7,3.5c-6.7,0-11.2-5.4-11.2-12.1
			C187.2,45.7,191.7,40.3,198.4,40.3z M199.8,57.1c3,0,4.7-2.2,4.7-4.7c0-2.5-1.7-4.7-4.7-4.7c-3,0-4.8,2.2-4.8,4.7
			C195,54.9,196.8,57.1,199.8,57.1z M242.5,40.8V64h-7.3l-0.5-2.8c-2.3,1.9-5,3.3-8,3.3c-5.9,0-8.4-3.7-8.4-9.8V40.8h7.8v10.1
			c0,4.9,1.3,6.2,3.8,6.2c2.2,0,4.8-1.1,4.8-5.8V40.8H242.5z M258,47.6c-2.3,0-4.9,1.7-4.9,4.7c0,3.1,2.7,4.7,4.9,4.7
			c1.6,0,3.2-0.3,5-1.9v7.3c-1.3,1-3.4,1.9-6.4,1.9c-6.9,0-11.8-5.6-11.8-12.1c0-6.4,4.9-12.1,11.8-12.1c3,0,5.1,0.9,6.4,1.9v7.3
			C261.2,47.9,259.6,47.6,258,47.6z M282.8,48.1h-5.6V64h-7.8V48.1h-4v-7.3h4v-6.9h7.8v6.9h5.6V48.1z M322.7,31.4V64h-4.8V49.9
			h-16.3V64h-4.8V31.4h4.8v14h16.3v-14H322.7z M340.5,40.3c4.2,0,7.5,2.3,8.8,5.2l0.3-4.8h4.5V64h-4.5l-0.3-4.8
			c-1.3,3-4.6,5.3-8.8,5.3c-6.7,0-11.7-5.4-11.7-12.1C328.9,45.7,333.9,40.3,340.5,40.3z M341.3,59.9c4.3,0,7.5-3.4,7.5-7.5
			c0-4.1-3.2-7.5-7.5-7.5c-4.4,0-7.7,3.4-7.7,7.5C333.6,56.5,336.9,59.9,341.3,59.9z M372.8,44.8c-3.9,0-7.7,3.1-7.7,7.5
			s3.7,7.5,7.7,7.5c2.4,0,4.5-0.9,6.3-2.7v4.6c-1.7,1.6-4,2.6-7,2.6c-6.8,0-12-5.5-12-12.1c0-6.5,5.1-12.1,12-12.1c3,0,5.4,1,7,2.6
			v4.6C377.3,45.7,375.2,44.8,372.8,44.8z M397.9,50.9L408.6,64h-6l-8.1-9.9l-3.7,3.5V64h-4.8V29.6h4.8v21.6l11-10.4h6.7L397.9,50.9
			z M434.6,53.8h-18.5c0.1,3.6,2.8,6.3,7.3,6.3c3.4,0,5.5-1.8,6.4-3.6L434,57c-0.8,3.2-4.4,7.4-10.7,7.4c-7.1,0-12-5.3-12-12.2
			c0-6.5,4.6-11.9,11.6-11.9c7.2,0,11.6,5.7,11.6,12.4V53.8z M416.1,50.5h13.6c-0.2-3.1-2.8-5.9-6.8-5.9
			C419,44.6,416.3,47.2,416.1,50.5z M454.3,41.3l-0.7,4.2c-0.5-0.3-1.4-0.6-2.4-0.6c-3.3,0-4.9,3.5-4.9,8.2v11h-4.8V40.8h4.5
			l0.2,2.7c1.5-1.9,3.2-3.2,5.2-3.2C452.8,40.3,453.8,40.8,454.3,41.3z M463.2,57.2c0.5,1.9,2.4,3.2,5.4,3.2c2.3,0,4.2-0.9,4.2-2.6
			c0-2.2-2.1-2.7-6.9-4.4c-3.7-1.2-6.8-3-6.8-6.8c0-4,4-6.4,8.2-6.4c5.4,0,8.7,3,8.9,6.8h-4.8c-0.2-1.9-2.1-2.8-3.9-2.8
			c-1.7,0-3.6,0.8-3.6,2.4c0,1.8,2,2.2,6.8,4c4.7,1.7,6.9,3.9,6.9,7.2c0,4.1-4,6.5-9.1,6.5c-5.6,0-9.6-2.4-10.1-7.2H463.2z"/>
		
			<radialGradient id="SVGID_1_" cx="-348.8125" cy="-21.9154" r="12.1661" gradientTransform="matrix(2.5078 0 0 2.5078 934.898 103.9589)" gradientUnits="userSpaceOnUse">
			<stop  offset="0" style="stop-color:#D99348"/>
			<stop  offset="2.762430e-02" style="stop-color:#D99348"/>
			<stop  offset="0.1781" style="stop-color:#DB8A42"/>
			<stop  offset="0.4207" style="stop-color:#E27333"/>
			<stop  offset="0.7231" style="stop-color:#EC4C1A"/>
			<stop  offset="1" style="stop-color:#F72300"/>
		</radialGradient>
		<path class="st2" d="M61.3,48c-0.5-0.3-1-0.4-1.6-0.4s-1.1,0.2-1.6,0.4c-1,0.6-1.6,1.6-1.6,2.8c0,1.8,1.4,3.2,3.2,3.2
			c1.8,0,3.2-1.4,3.2-3.2C63,49.6,62.3,48.6,61.3,48z M76.4,78.1c4.3-2.4,7.9-5.9,10.6-10l1.2-2.1l0-0.1c2.3-4.3,3.5-9.2,3.6-14.1
			c0-1.2-0.9-2.2-2.1-2.2c0,0,0,0,0,0c-1.2,0-2.2,1-2.2,2.2c0,4.2-1.1,8.4-3,12.1l-1.1,2c-2.3,3.5-5.4,6.5-9,8.6
			c-1,0.6-1.4,1.9-0.8,2.9c0.4,0.7,1.1,1.1,1.8,1.1C75.6,78.4,76,78.3,76.4,78.1z M71.7,69.9c3.2-1.8,5.9-4.5,7.7-7.6
			c1.9-3.2,2.9-6.8,2.9-10.5c0-1.2-0.9-2.2-2.1-2.2c0,0,0,0,0,0c-1.2,0-2.2,1-2.2,2.2c0,2.9-0.8,5.8-2.3,8.3
			c-1.5,2.5-3.6,4.6-6.1,6.1c-1,0.6-1.4,1.9-0.8,2.9c0.4,0.7,1.1,1.1,1.9,1.1C70.9,70.2,71.3,70.1,71.7,69.9z M67,61.7
			c1.8-1,3.2-2.5,4.3-4.2c1-1.7,1.6-3.7,1.6-5.8c0-1.2-0.9-2.2-2.1-2.2c0,0,0,0,0,0c-1.2,0-2.2,1-2.2,2.2c0,1.3-0.3,2.5-1,3.6
			c-0.6,1.1-1.6,2-2.7,2.6c-1,0.6-1.4,1.9-0.8,2.9c0.4,0.7,1.1,1.1,1.8,1.1C66.3,62,66.6,61.9,67,61.7z M46.4,77.3
			c0.6-1,0.3-2.4-0.8-3c-3.6-2.1-6.7-5.2-8.9-8.7l-1.1-2c-1.9-3.7-2.9-7.9-2.8-12.1c0-1.2-0.9-2.2-2.1-2.2c0,0,0,0,0,0
			c-1.2,0-2.2,0.9-2.2,2.1c-0.1,4.9,1.1,9.8,3.3,14.2l1.2,2.1l0,0.1c2.6,4.2,6.2,7.7,10.4,10.2c0.3,0.2,0.7,0.3,1.1,0.3
			C45.3,78.4,46,78,46.4,77.3z M51.3,69.2c0.6-1,0.3-2.4-0.8-3c-2.5-1.5-4.6-3.6-6-6.2c-1.4-2.6-2.2-5.5-2.1-8.4
			c0-1.2-0.9-2.2-2.1-2.2c-1.2,0-2.2,0.9-2.2,2.1c-0.1,3.7,0.9,7.3,2.7,10.5c1.8,3.2,4.4,5.9,7.6,7.8c0.3,0.2,0.7,0.3,1.1,0.3
			C50.1,70.2,50.9,69.9,51.3,69.2z M56.1,61c0.6-1,0.3-2.4-0.8-3c-1.1-0.7-2-1.6-2.6-2.7c-0.6-1.1-0.9-2.4-0.9-3.6
			c0-1.2-0.9-2.2-2.1-2.2c-1.2,0-2.2,0.9-2.2,2.1c0,2,0.5,4,1.5,5.8c1,1.8,2.4,3.2,4.2,4.3c0.3,0.2,0.7,0.3,1.1,0.3
			C55,62.1,55.7,61.7,56.1,61z M73.9,27.7c-0.4,0-0.7-0.1-1.1-0.3c-3.6-2.1-7.8-3.3-11.9-3.5h-2.3c-4.2,0.2-8.3,1.4-11.9,3.5
			c-1,0.6-2.4,0.2-3-0.8c-0.6-1-0.2-2.4,0.8-3c4.2-2.5,9.1-3.9,14-4.1l0.1,0l2.4,0c4.9,0.2,9.7,1.6,14,4.1c1,0.6,1.4,1.9,0.8,3
			C75.4,27.3,74.6,27.7,73.9,27.7z M71,34.8c0.6-1,0.2-2.4-0.8-3C67.1,30,63.4,29,59.7,29c-3.7,0-7.3,1-10.5,2.8
			c-1,0.6-1.4,1.9-0.8,3c0.6,1,1.9,1.4,3,0.8c2.5-1.5,5.4-2.2,8.3-2.2c2.9,0,5.8,0.8,8.3,2.2c0.3,0.2,0.7,0.3,1.1,0.3
			C69.9,35.9,70.6,35.5,71,34.8z M56.1,43.8c2.2-1.3,5-1.3,7.2,0c1,0.6,2.4,0.2,3-0.8c0.6-1,0.2-2.4-0.8-3c-3.5-2-8-2-11.6,0
			c-1,0.6-1.4,1.9-0.8,3c0.4,0.7,1.1,1.1,1.9,1.1C55.4,44.1,55.8,44,56.1,43.8z"/>
	</g>
</g>
<g id="Capa_3" class="st0">
</g>
</svg>
